# xmcd
#
# Track frame offsets:
#	150
#	14242
#	26971
#	37646
#	51319
#	65207
#	78754
#	91091
#	104716
#	118277
#	131847
#	145173
#	159643
#	173397
#	187010
#	200566
#	214069
#	229539
#	244793
#	258120
#	271820
#	285880
#	299572
#	316699
#	330503
#
# Disc length: 4609 seconds
#
# Revision: 1
# Processed by: cddbd v1.5.2PL0 Copyright (c) Steve Scherf et al.
# Submitted via: EZCDAudioConverter 7.0.0.1
#
DISCID=6c11ff19
DTITLE=Frank Hutchison - Worried Blues [CD3]
DYEAR=2005
DGENRE=Country
TTITLE0=The Dying Hobo
TTITLE1=Beneath the Weeping Willow Tree
TTITLE2=My Horses Ain't Hungry
TTITLE3=Bright Sherman Valley
TTITLE4=The Cuckoo She's a Fine Bird
TTITLE5=Hand Me Down My Walking Cane
TTITLE6=Bye and Bye You Will Soon Forget Me
TTITLE7=Oh, My Pretty Monkey
TTITLE8=I Love My Sweetheart the Best
TTITLE9=Henry Clay Beattie
TTITLE10=I Want a Nice Little Fellow
TTITLE11=My Name Is John Jo Hannah
TTITLE12=In the Shadow of the Pine
TTITLE13=Charles Giteau
TTITLE14=I'm Nobody's Darling on Earth
TTITLE15=She Has Gone and Left Me
TTITLE16=Row Us Over the Tide
TTITLE17=I Have No Loving Mother Now
TTITLE18=For Seven Long Years I've Been Married
TTITLE19=Charley, He's a Good Old Man
TTITLE20=The Henpecked Man
TTITLE21=She Just Kept Kissing On
TTITLE22=All My Sins Are Taken Away
TTITLE23=Cave Love Has Gained the Day
TTITLE24=I Heard Somebody Call My Name
EXTD=
EXTT0=
EXTT1=
EXTT2=
EXTT3=
EXTT4=
EXTT5=
EXTT6=
EXTT7=
EXTT8=
EXTT9=
EXTT10=
EXTT11=
EXTT12=
EXTT13=
EXTT14=
EXTT15=
EXTT16=
EXTT17=
EXTT18=
EXTT19=
EXTT20=
EXTT21=
EXTT22=
EXTT23=
EXTT24=
PLAYORDER=
